<?xml version="1.0" encoding="UTF-8" standalone="no"?>
<!DOCTYPE svg PUBLIC "-//W3C//DTD SVG 1.1//EN"
 "http://www.w3.org/Graphics/SVG/1.1/DTD/svg11.dtd">
<!-- Generated by graphviz version 2.40.1 (20161225.0304)
 -->
<!-- Title: G Pages: 1 -->
<svg width="235pt" height="528pt"
 viewBox="0.00 0.00 234.91 528.00" xmlns="http://www.w3.org/2000/svg" xmlns:xlink="http://www.w3.org/1999/xlink">
<g id="graph0" class="graph" transform="scale(1 1) rotate(0) translate(4 524)">
<title>G</title>
<polygon fill="#ffffff" stroke="transparent" points="-4,4 -4,-524 230.915,-524 230.915,4 -4,4"/>
<!-- A0 -->
<g id="node1" class="node">
<title>A0</title>
<ellipse fill="none" stroke="#000000" cx="113.4575" cy="-509" rx="11" ry="11"/>
</g>
<!-- A1 -->
<g id="node2" class="node">
<title>A1</title>
<path fill="none" stroke="#000000" d="M169.8475,-462C169.8475,-462 57.0675,-462 57.0675,-462 51.0675,-462 45.0675,-456 45.0675,-450 45.0675,-450 45.0675,-438 45.0675,-438 45.0675,-432 51.0675,-426 57.0675,-426 57.0675,-426 169.8475,-426 169.8475,-426 175.8475,-426 181.8475,-432 181.8475,-438 181.8475,-438 181.8475,-450 181.8475,-450 181.8475,-456 175.8475,-462 169.8475,-462"/>
<text text-anchor="middle" x="113.4575" y="-441" font-family="Helvetica,sans-Serif" font-size="10.00" fill="#000000">GET New XML Files List</text>
</g>
<!-- A0&#45;&gt;A1 -->
<g id="edge1" class="edge">
<title>A0&#45;&gt;A1</title>
<path fill="none" stroke="#000000" d="M113.4575,-497.9736C113.4575,-490.9446 113.4575,-481.49 113.4575,-472.4584"/>
<polygon fill="#000000" stroke="#000000" points="113.4575,-462.2209 117.9576,-472.2209 113.4575,-467.2209 113.4576,-472.2209 113.4576,-472.2209 113.4576,-472.2209 113.4575,-467.2209 108.9576,-472.221 113.4575,-462.2209 113.4575,-462.2209"/>
</g>
<!-- A2 -->
<g id="node3" class="node">
<title>A2</title>
<path fill="none" stroke="#000000" d="M162.3675,-390C162.3675,-390 64.5475,-390 64.5475,-390 58.5475,-390 52.5475,-384 52.5475,-378 52.5475,-378 52.5475,-366 52.5475,-366 52.5475,-360 58.5475,-354 64.5475,-354 64.5475,-354 162.3675,-354 162.3675,-354 168.3675,-354 174.3675,-360 174.3675,-366 174.3675,-366 174.3675,-378 174.3675,-378 174.3675,-384 168.3675,-390 162.3675,-390"/>
<text text-anchor="middle" x="113.4575" y="-369" font-family="Helvetica,sans-Serif" font-size="10.00" fill="#000000">GET Path of XML file</text>
</g>
<!-- A1&#45;&gt;A2 -->
<g id="edge2" class="edge">
<title>A1&#45;&gt;A2</title>
<path fill="none" stroke="#000000" d="M113.4575,-425.8314C113.4575,-418.131 113.4575,-408.9743 113.4575,-400.4166"/>
<polygon fill="#000000" stroke="#000000" points="113.4575,-390.4133 117.9576,-400.4132 113.4575,-395.4133 113.4576,-400.4133 113.4576,-400.4133 113.4576,-400.4133 113.4575,-395.4133 108.9576,-400.4133 113.4575,-390.4133 113.4575,-390.4133"/>
</g>
<!-- A3 -->
<g id="node4" class="node">
<title>A3</title>
<path fill="none" stroke="#000000" d="M169.8565,-318C169.8565,-318 57.0585,-318 57.0585,-318 51.0585,-318 45.0585,-312 45.0585,-306 45.0585,-306 45.0585,-294 45.0585,-294 45.0585,-288 51.0585,-282 57.0585,-282 57.0585,-282 169.8565,-282 169.8565,-282 175.8565,-282 181.8565,-288 181.8565,-294 181.8565,-294 181.8565,-306 181.8565,-306 181.8565,-312 175.8565,-318 169.8565,-318"/>
<text text-anchor="middle" x="113.4575" y="-297" font-family="Helvetica,sans-Serif" font-size="10.00" fill="#000000">Create XML Parser Tree</text>
</g>
<!-- A2&#45;&gt;A3 -->
<g id="edge3" class="edge">
<title>A2&#45;&gt;A3</title>
<path fill="none" stroke="#000000" d="M113.4575,-353.8314C113.4575,-346.131 113.4575,-336.9743 113.4575,-328.4166"/>
<polygon fill="#000000" stroke="#000000" points="113.4575,-318.4133 117.9576,-328.4132 113.4575,-323.4133 113.4576,-328.4133 113.4576,-328.4133 113.4576,-328.4133 113.4575,-323.4133 108.9576,-328.4133 113.4575,-318.4133 113.4575,-318.4133"/>
</g>
<!-- A4 -->
<g id="node5" class="node">
<title>A4</title>
<path fill="none" stroke="#000000" d="M170.4173,-246C170.4173,-246 56.4977,-246 56.4977,-246 50.4977,-246 44.4977,-240 44.4977,-234 44.4977,-234 44.4977,-222 44.4977,-222 44.4977,-216 50.4977,-210 56.4977,-210 56.4977,-210 170.4173,-210 170.4173,-210 176.4173,-210 182.4173,-216 182.4173,-222 182.4173,-222 182.4173,-234 182.4173,-234 182.4173,-240 176.4173,-246 170.4173,-246"/>
<text text-anchor="middle" x="113.4575" y="-225" font-family="Helvetica,sans-Serif" font-size="10.00" fill="#000000">Create XML Parser Root</text>
</g>
<!-- A3&#45;&gt;A4 -->
<g id="edge4" class="edge">
<title>A3&#45;&gt;A4</title>
<path fill="none" stroke="#000000" d="M113.4575,-281.8314C113.4575,-274.131 113.4575,-264.9743 113.4575,-256.4166"/>
<polygon fill="#000000" stroke="#000000" points="113.4575,-246.4133 117.9576,-256.4132 113.4575,-251.4133 113.4576,-256.4133 113.4576,-256.4133 113.4576,-256.4133 113.4575,-251.4133 108.9576,-256.4133 113.4575,-246.4133 113.4575,-246.4133"/>
</g>
<!-- A5 -->
<g id="node6" class="node">
<title>A5</title>
<path fill="none" stroke="#000000" d="M214.8725,-174C214.8725,-174 12.0425,-174 12.0425,-174 6.0425,-174 .0425,-168 .0425,-162 .0425,-162 .0425,-150 .0425,-150 .0425,-144 6.0425,-138 12.0425,-138 12.0425,-138 214.8725,-138 214.8725,-138 220.8725,-138 226.8725,-144 226.8725,-150 226.8725,-150 226.8725,-162 226.8725,-162 226.8725,-168 220.8725,-174 214.8725,-174"/>
<text text-anchor="middle" x="113.4575" y="-153" font-family="Helvetica,sans-Serif" font-size="10.00" fill="#000000">INVITE ParserFromXMLToDataBase funcion</text>
</g>
<!-- A4&#45;&gt;A5 -->
<g id="edge5" class="edge">
<title>A4&#45;&gt;A5</title>
<path fill="none" stroke="#000000" d="M113.4575,-209.8314C113.4575,-202.131 113.4575,-192.9743 113.4575,-184.4166"/>
<polygon fill="#000000" stroke="#000000" points="113.4575,-174.4133 117.9576,-184.4132 113.4575,-179.4133 113.4576,-184.4133 113.4576,-184.4133 113.4576,-184.4133 113.4575,-179.4133 108.9576,-184.4133 113.4575,-174.4133 113.4575,-174.4133"/>
</g>
<!-- A6 -->
<g id="node7" class="node">
<title>A6</title>
<path fill="none" stroke="#000000" d="M191.0956,-102C191.0956,-102 35.8194,-102 35.8194,-102 29.8194,-102 23.8194,-96 23.8194,-90 23.8194,-90 23.8194,-78 23.8194,-78 23.8194,-72 29.8194,-66 35.8194,-66 35.8194,-66 191.0956,-66 191.0956,-66 197.0956,-66 203.0956,-72 203.0956,-78 203.0956,-78 203.0956,-90 203.0956,-90 203.0956,-96 197.0956,-102 191.0956,-102"/>
<text text-anchor="middle" x="113.4575" y="-81" font-family="Helvetica,sans-Serif" font-size="10.00" fill="#000000">SET XML file Status to Zero in DB</text>
</g>
<!-- A5&#45;&gt;A6 -->
<g id="edge6" class="edge">
<title>A5&#45;&gt;A6</title>
<path fill="none" stroke="#000000" d="M113.4575,-137.8314C113.4575,-130.131 113.4575,-120.9743 113.4575,-112.4166"/>
<polygon fill="#000000" stroke="#000000" points="113.4575,-102.4133 117.9576,-112.4132 113.4575,-107.4133 113.4576,-112.4133 113.4576,-112.4133 113.4576,-112.4133 113.4575,-107.4133 108.9576,-112.4133 113.4575,-102.4133 113.4575,-102.4133"/>
</g>
<!-- A7 -->
<g id="node8" class="node">
<title>A7</title>
<ellipse fill="none" stroke="#000000" cx="113.4575" cy="-15" rx="11" ry="11"/>
<ellipse fill="none" stroke="#000000" cx="113.4575" cy="-15" rx="15" ry="15"/>
</g>
<!-- A6&#45;&gt;A7 -->
<g id="edge7" class="edge">
<title>A6&#45;&gt;A7</title>
<path fill="none" stroke="#000000" d="M113.4575,-65.8711C113.4575,-58.1224 113.4575,-48.9394 113.4575,-40.5226"/>
<polygon fill="#000000" stroke="#000000" points="113.4575,-30.4366 117.9576,-40.4366 113.4575,-35.4366 113.4576,-40.4366 113.4576,-40.4366 113.4576,-40.4366 113.4575,-35.4366 108.9576,-40.4367 113.4575,-30.4366 113.4575,-30.4366"/>
</g>
</g>
</svg>
