<?xml version="1.0" encoding="UTF-8" standalone="no"?>
<!DOCTYPE svg PUBLIC "-//W3C//DTD SVG 1.1//EN"
 "http://www.w3.org/Graphics/SVG/1.1/DTD/svg11.dtd">
<!-- Generated by graphviz version 2.40.1 (20161225.0304)
 -->
<!-- Title: G Pages: 1 -->
<svg width="657pt" height="428pt"
 viewBox="0.00 0.00 656.61 428.00" xmlns="http://www.w3.org/2000/svg" xmlns:xlink="http://www.w3.org/1999/xlink">
<g id="graph0" class="graph" transform="scale(1 1) rotate(0) translate(4 424)">
<title>G</title>
<polygon fill="#ffffff" stroke="transparent" points="-4,4 -4,-424 652.6095,-424 652.6095,4 -4,4"/>
<!-- A0 -->
<g id="node1" class="node">
<title>A0</title>
<ellipse fill="none" stroke="#000000" cx="386.6965" cy="-409" rx="11" ry="11"/>
</g>
<!-- A1 -->
<g id="node2" class="node">
<title>A1</title>
<polygon fill="none" stroke="#000000" points="386.6965,-361 368.6965,-343 386.6965,-325 404.6965,-343 386.6965,-361"/>
</g>
<!-- A0&#45;&gt;A1 -->
<g id="edge1" class="edge">
<title>A0&#45;&gt;A1</title>
<path fill="none" stroke="#000000" d="M386.6965,-397.804C386.6965,-390.5358 386.6965,-380.7135 386.6965,-371.3916"/>
<polygon fill="#000000" stroke="#000000" points="386.6965,-361.2423 391.1966,-371.2423 386.6965,-366.2423 386.6966,-371.2423 386.6966,-371.2423 386.6966,-371.2423 386.6965,-366.2423 382.1966,-371.2424 386.6965,-361.2423 386.6965,-361.2423"/>
</g>
<!-- A2 -->
<g id="node3" class="node">
<title>A2</title>
<polygon fill="none" stroke="#000000" points="319.6965,-277 301.6965,-259 319.6965,-241 337.6965,-259 319.6965,-277"/>
</g>
<!-- A1&#45;&gt;A2 -->
<g id="edge2" class="edge">
<title>A1&#45;&gt;A2</title>
<path fill="none" stroke="#000000" d="M372.9606,-338.1751C359.5734,-332.7348 339.7176,-322.5631 329.0175,-307 325.1039,-301.3077 322.7365,-294.3842 321.3278,-287.5874"/>
<polygon fill="#000000" stroke="#000000" points="319.8187,-277.2062 325.7105,-286.4548 320.538,-282.1541 321.2573,-287.1021 321.2573,-287.1021 321.2573,-287.1021 320.538,-282.1541 316.8041,-287.7495 319.8187,-277.2062 319.8187,-277.2062"/>
<text text-anchor="middle" x="384.536" y="-298" font-family="Helvetica,sans-Serif" font-size="10.00" fill="#000000">Statement Directory exist</text>
</g>
<!-- A5 -->
<g id="node6" class="node">
<title>A5</title>
<path fill="none" stroke="#000000" d="M334.6965,-36C334.6965,-36 304.6965,-36 304.6965,-36 298.6965,-36 292.6965,-30 292.6965,-24 292.6965,-24 292.6965,-12 292.6965,-12 292.6965,-6 298.6965,0 304.6965,0 304.6965,0 334.6965,0 334.6965,0 340.6965,0 346.6965,-6 346.6965,-12 346.6965,-12 346.6965,-24 346.6965,-24 346.6965,-30 340.6965,-36 334.6965,-36"/>
<text text-anchor="middle" x="319.6965" y="-15" font-family="Helvetica,sans-Serif" font-size="10.00" fill="#000000">END</text>
</g>
<!-- A1&#45;&gt;A5 -->
<g id="edge6" class="edge">
<title>A1&#45;&gt;A5</title>
<path fill="none" stroke="#000000" d="M399.7463,-337.5211C412.0605,-331.7 430.161,-321.3502 440.6965,-307 453.8477,-289.0871 454.6965,-281.2222 454.6965,-259 454.6965,-259 454.6965,-259 454.6965,-91 454.6965,-46.39 396.9536,-28.9066 356.9963,-22.1486"/>
<polygon fill="#000000" stroke="#000000" points="347.0158,-20.6168 357.5827,-17.686 351.9579,-21.3753 356.9,-22.1339 356.9,-22.1339 356.9,-22.1339 351.9579,-21.3753 356.2173,-26.5818 347.0158,-20.6168 347.0158,-20.6168"/>
<text text-anchor="middle" x="551.653" y="-172" font-family="Helvetica,sans-Serif" font-size="10.00" fill="#000000">Delegated Statement Directory is NOT exist</text>
</g>
<!-- A3 -->
<g id="node4" class="node">
<title>A3</title>
<path fill="none" stroke="#000000" d="M261.1532,-193C261.1532,-193 142.2398,-193 142.2398,-193 136.2398,-193 130.2398,-187 130.2398,-181 130.2398,-181 130.2398,-169 130.2398,-169 130.2398,-163 136.2398,-157 142.2398,-157 142.2398,-157 261.1532,-157 261.1532,-157 267.1532,-157 273.1532,-163 273.1532,-169 273.1532,-169 273.1532,-181 273.1532,-181 273.1532,-187 267.1532,-193 261.1532,-193"/>
<text text-anchor="middle" x="201.6965" y="-172" font-family="Helvetica,sans-Serif" font-size="10.00" fill="#000000">Insert New XML file to DB</text>
</g>
<!-- A2&#45;&gt;A3 -->
<g id="edge3" class="edge">
<title>A2&#45;&gt;A3</title>
<path fill="none" stroke="#000000" d="M303.7428,-256.8686C282.8711,-253.3078 246.2803,-244.3096 223.4725,-223 217.5884,-217.5024 213.1765,-210.1126 209.9199,-202.781"/>
<polygon fill="#000000" stroke="#000000" points="206.1655,-193.0026 213.9509,-200.7252 207.9577,-197.6704 209.75,-202.3382 209.75,-202.3382 209.75,-202.3382 207.9577,-197.6704 205.549,-203.9512 206.1655,-193.0026 206.1655,-193.0026"/>
<text text-anchor="middle" x="264.8085" y="-214" font-family="Helvetica,sans-Serif" font-size="10.00" fill="#000000">New XML file exist</text>
</g>
<!-- A2&#45;&gt;A5 -->
<g id="edge7" class="edge">
<title>A2&#45;&gt;A5</title>
<path fill="none" stroke="#000000" d="M319.6965,-240.8858C319.6965,-199.2762 319.6965,-96.603 319.6965,-46.4671"/>
<polygon fill="#000000" stroke="#000000" points="319.6965,-36.3244 324.1966,-46.3243 319.6965,-41.3244 319.6966,-46.3244 319.6966,-46.3244 319.6966,-46.3244 319.6965,-41.3244 315.1966,-46.3244 319.6965,-36.3244 319.6965,-36.3244"/>
<text text-anchor="middle" x="379.6995" y="-130" font-family="Helvetica,sans-Serif" font-size="10.00" fill="#000000">There is NOT new XML file</text>
</g>
<!-- A4 -->
<g id="node5" class="node">
<title>A4</title>
<path fill="none" stroke="#000000" d="M279.5898,-109C279.5898,-109 11.8032,-109 11.8032,-109 5.8032,-109 -.1968,-103 -.1968,-97 -.1968,-97 -.1968,-85 -.1968,-85 -.1968,-79 5.8032,-73 11.8032,-73 11.8032,-73 279.5898,-73 279.5898,-73 285.5898,-73 291.5898,-79 291.5898,-85 291.5898,-85 291.5898,-97 291.5898,-97 291.5898,-103 285.5898,-109 279.5898,-109"/>
<text text-anchor="middle" x="145.6965" y="-88" font-family="Helvetica,sans-Serif" font-size="10.00" fill="#000000">Setting new status for XML file / Trigger for BudgetManager</text>
</g>
<!-- A3&#45;&gt;A4 -->
<g id="edge4" class="edge">
<title>A3&#45;&gt;A4</title>
<path fill="none" stroke="#000000" d="M189.5453,-156.7733C181.9135,-145.3254 171.9393,-130.3641 163.4322,-117.6036"/>
<polygon fill="#000000" stroke="#000000" points="157.824,-109.1912 167.1152,-115.0155 160.5975,-113.3514 163.371,-117.5117 163.371,-117.5117 163.371,-117.5117 160.5975,-113.3514 159.6268,-120.0079 157.824,-109.1912 157.824,-109.1912"/>
</g>
<!-- A4&#45;&gt;A5 -->
<g id="edge5" class="edge">
<title>A4&#45;&gt;A5</title>
<path fill="none" stroke="#000000" d="M188.7077,-72.9551C217.7853,-60.7559 255.7594,-44.8242 283.3289,-33.2577"/>
<polygon fill="#000000" stroke="#000000" points="292.615,-29.3618 285.1346,-37.3802 288.0043,-31.2962 283.3936,-33.2306 283.3936,-33.2306 283.3936,-33.2306 288.0043,-31.2962 281.6527,-29.081 292.615,-29.3618 292.615,-29.3618"/>
</g>
</g>
</svg>
